Simulation
nRows=49
nColumns=15
endheader
time  TH_x TH_y TH_z SC_y  SC_z  SC_x  AC_y  AC_z  AC_x  GH_y  GH_z  GH_yy  EL_x  PS_y
0.0  0.000000  0.000000  0.000000  -43.5347597037666  5.880463324470068  66.57536968665667  79.88487892268166  -14.703969122464573  39.96874835910829  -24.032031766958927  87.8696181002978  18.824103715521414  39.79560046559864  0.000000
0.04  0.000000  0.000000  0.000000  -45.57039358326218  -2.837401631042996  72.09532161670406  54.99162924776498  -32.271090419077176  28.927350398320442  -21.14754832565222  57.92676434497404  27.81061176313986  48.751358332690444  0.000000
0.08  0.000000  0.000000  0.000000  -34.29105774269841  4.059668653328462  59.3636718393324  74.19005106243179  -15.018749267987701  29.772442457227168  -50.8466312337876  78.10082016016769  34.27688355410247  44.933335757877536  0.000000
0.12  0.000000  0.000000  0.000000  -54.40944507133903  -1.3487134235030882  12.861934487249407  65.30432121861037  29.064506720876548  65.39831567280285  -27.16812944417895  16.741595336246732  -26.05642223017443  50.585525735761195  0.000000
0.16  0.000000  0.000000  0.000000  -35.7821491642956  0.13842881899005938  -8.647434988172725  54.52847473039679  47.02236407685779  55.27287875808936  -13.948563625282464  6.699248620032379  -169.78358609092632  78.59520924787756  0.000000
0.2  0.000000  0.000000  0.000000  -34.110849662072624  6.30405468602023  26.494797486325155  81.33917670584245  5.063053508060158  55.972256945818955  54.00996948337448  49.164390362281736  -220.24125716352663  52.292216567908405  0.000000
0.24  0.000000  0.000000  0.000000  -36.23618884137632  -4.3719075266506096  68.75009483653638  53.29099057017211  -12.282136480670394  48.718248590240954  142.3429681932037  -13.742046628214178  -126.92412944181515  52.12671828810915  0.000000
0.28  0.000000  0.000000  0.000000  -22.06180938909532  -4.9076548089774565  53.06014513135651  34.14096932326699  3.822849056423076  18.102702657522336  118.23357565548399  -1.5591563247246722  -66.43227649792522  69.41940449367456  0.000000
0.32  0.000000  0.000000  0.000000  -29.66086167312589  0.5816457156818058  47.740367139463984  40.508220847276135  -0.10307059203894829  26.80069765519325  138.40473669297654  9.07600620572862  -66.85429884364115  44.57887875513841  0.000000
0.36  0.000000  0.000000  0.000000  -29.029353840224147  -7.132091101144376  70.37257817930761  42.87478279435528  -5.204098279072226  39.44260255471609  169.86881102373877  0.4491409250364018  -69.26702665547779  28.535330215402713  0.000000
0.4  0.000000  0.000000  0.000000  -31.201428395000207  -0.7710446421861792  61.782186307402945  46.70589227848767  -9.79551114128737  34.07208194113529  150.87151458324504  9.159585106521082  -96.90712234946675  33.950569324573905  0.000000
0.44  0.000000  0.000000  0.000000  -23.730324306556785  -6.629252025548157  62.89819602852462  49.578499501405425  -12.991043035708858  31.89766155365226  171.90422076407987  18.088691440250635  -115.48123723817673  23.70043571003408  0.000000
0.48  0.000000  0.000000  0.000000  -25.606751118258575  -5.068223698619591  67.3281279738172  47.40461419830719  -15.288264429107661  29.52713189069631  187.8090288962855  38.5146591320413  -112.88599724586248  -6.040655100192913  0.000000
0.52  0.000000  0.000000  0.000000  -27.18346941526481  -4.6925076754208925  65.3184432004602  49.01297894530615  -15.43984927237066  30.435972492781172  182.90079422963734  33.63247254850111  -85.60014686206087  17.66094710613791  0.000000
0.56  0.000000  0.000000  0.000000  -25.378237243518534  -5.606078743265517  62.30249235225858  46.86654730617305  -9.995007377755815  31.54960918477185  183.59367357361197  25.99836263349868  -59.79547053675056  42.6247321918167  0.000000
0.6  0.000000  0.000000  0.000000  -27.280728719861994  -3.7031928549250805  57.678847471019175  48.41168878072613  -9.769269560064766  32.797631260385536  179.69726299673053  21.111278726386242  -59.91201474503242  48.60054618865849  0.000000
0.64  0.000000  0.000000  0.000000  -28.39190934722903  -6.115596267301563  62.38121603928867  47.965134104792746  -8.43130191242801  32.62079568992294  180.9825870256485  23.070211961177996  -61.06575633399837  44.40839442493892  0.000000
0.68  0.000000  0.000000  0.000000  -24.296601792284186  -4.321259410222857  59.06920580602641  48.762606627158874  -12.784974680194988  32.37287343569255  170.92948703794002  12.868936397872453  -76.8155820222999  28.391967951478165  0.000000
0.72  0.000000  0.000000  0.000000  -19.326327498216827  -5.684788770976901  57.76361615702137  44.330834357682654  -7.687165088870644  31.449698150904116  163.0585405425975  2.6692314836337347  -92.4764178984523  33.97797434949208  0.000000
0.76  0.000000  0.000000  0.000000  -25.944518736863948  -2.1968244065149363  62.93528605084772  39.46416857078393  -5.789458551711239  33.35070796956621  155.29847974540792  7.260747459514004  -92.60838248796726  32.23102807528409  0.000000
0.8  0.000000  0.000000  0.000000  -26.365766785321753  -4.63658794023067  63.456973516305155  46.03990312121326  -8.180026101974084  38.26939991522424  149.32034497378334  0.993131826277731  -88.34101955230484  23.39694438431633  0.000000
0.84  0.000000  0.000000  0.000000  -25.067420485592436  -5.985206170253753  62.390226512395465  44.79211925837933  -5.387849025072707  35.61413410493113  147.06025366172656  4.54084285752549  -86.88294950360672  23.561526231268584  0.000000
0.88  0.000000  0.000000  0.000000  -27.14412115433491  -3.5842089207584142  63.722903312508656  42.50833430843758  -6.78735371125097  33.428826128657334  150.38647340483462  10.359274077122604  -85.86280312613248  21.670811817282274  0.000000
0.92  0.000000  0.000000  0.000000  -26.158459984118082  -5.234117145067007  66.61999877075769  44.072586842385235  -8.466880578440465  33.42752760792932  160.07430091720423  10.212280975127594  -88.08924548792007  19.73312001260459  0.000000
0.96  0.000000  0.000000  0.000000  -26.565403817948592  -4.3089924754051525  67.92938297170699  42.71460141010408  -9.790720901986733  31.12257736422506  161.67677570737092  15.56991030050868  -91.3190795509685  19.007536753579277  0.000000
1.0  0.000000  0.000000  0.000000  -25.778869484711752  -4.832412863597778  69.60848551318651  42.729744336901014  -10.795455420349883  29.8978447439201  164.48589163710696  17.86967806193816  -90.99807313645904  19.509697786883745  0.000000
1.04  0.000000  0.000000  0.000000  -25.57157420966254  -4.816661300106029  70.29225866792495  42.63902904239968  -11.888137280451659  29.51734681510855  166.02124939693647  19.950865437856653  -92.28560786768445  20.52076345328782  0.000000
1.08  0.000000  0.000000  0.000000  -24.90999583686955  -5.013484146553839  70.23952684017843  42.6572556299513  -11.757298322171602  29.48703048362014  166.47555928126621  21.338513991844025  -92.70848778392802  22.03904803433971  0.000000
1.12  0.000000  0.000000  0.000000  -24.562151346677783  -5.099273139100779  69.98000991177298  42.785919467076035  -12.181893668194178  29.682281790830004  166.47315648165517  21.729088963470833  -93.22992390221697  23.14310944689407  0.000000
1.16  0.000000  0.000000  0.000000  -24.340459920025793  -5.200778564088802  70.08329113598062  42.73982759020041  -11.921752979621353  29.54334003484905  166.3784214467868  22.519104904740022  -94.02583438647034  23.742031953865318  0.000000
1.2  0.000000  0.000000  0.000000  -24.27424649352245  -5.178203901106621  69.77035284267171  42.85380546962764  -12.19623151492255  29.824800865952387  166.0671136665517  21.911318613380892  -94.35933482735902  24.154687488295266  0.000000
1.24  0.000000  0.000000  0.000000  -24.37964824208456  -5.220937843763726  70.0760740682196  42.7939013934828  -11.896436849564676  29.67766324504535  165.86650394204858  21.951014379764086  -95.13636444632036  23.778476155330576  0.000000
1.28  0.000000  0.000000  0.000000  -24.83210302995739  -4.960758908670987  69.93804688781286  42.67004830398273  -12.025823539747437  29.53443227764712  163.76377718321478  21.155261642592915  -93.98730882804571  23.45282094707728  0.000000
1.32  0.000000  0.000000  0.000000  -24.931627752241088  -5.269450604131646  69.81840650773398  42.97211934844006  -11.3366648388517  29.91682616783302  161.69395221107763  19.713401456516067  -92.27977209580764  22.718142406112317  0.000000
1.36  0.000000  0.000000  0.000000  -25.286980054881482  -4.608464508001135  68.92790498590759  43.09543201257556  -11.448417322455  31.544765497068713  160.44386065727667  16.93402875493404  -95.52965323884382  22.94231400261268  0.000000
1.4000000000000001  0.000000  0.000000  0.000000  -24.74018566202753  -5.627868966568618  67.6910702749669  43.96559601244877  -10.028693808853946  32.740383009897805  159.14754252017593  15.482931799209245  -100.11790352094033  20.44286817351216  0.000000
1.44  0.000000  0.000000  0.000000  -25.857861556063646  -4.544068520047147  68.12568371326178  44.43776537875642  -10.686876686635339  32.44957782422345  156.61676017063223  13.489005394786538  -96.42785294638938  22.00647833990994  0.000000
1.48  0.000000  0.000000  0.000000  -26.819348791654463  -3.829358515663091  65.91087236373035  42.2729996555479  -8.005165819539597  34.54820050079994  161.8626401691143  11.284120060142486  -78.98451072322027  30.118057543738512  0.000000
1.52  0.000000  0.000000  0.000000  -21.61661850703898  -7.016005509904344  60.72672945283899  45.18452578959146  -7.168686189578446  32.765580711050056  165.65755545704957  10.783247837129386  -80.79130573220256  15.236184577119293  0.000000
1.56  0.000000  0.000000  0.000000  -22.684028594606218  -4.350073995068938  56.16118152085536  49.818099859486004  -12.395719909472563  30.12900468723577  158.05264175441886  8.300046374963282  -99.96698671880861  5.475072706285278  0.000000
1.6  0.000000  0.000000  0.000000  -23.131056339545484  -6.000541754583963  58.2983166765678  43.86665515939491  -5.400214725567119  32.11074249451383  155.11186958814272  -1.6264892304393672  -88.01025132058501  29.99764377696819  0.000000
1.6400000000000001  0.000000  0.000000  0.000000  -26.365051941754032  -2.4556653572291185  61.677479546795006  41.53608647539834  -5.683275015852511  36.01514425242032  132.05474869484183  -4.898601265552264  -86.0580418115316  34.931190306041124  0.000000
1.68  0.000000  0.000000  0.000000  -26.230271422501744  -4.281131498149082  60.46884144007391  45.62881342046734  -5.225714515599142  40.16792794289885  120.5285741833036  -0.5847761646633513  -92.82536553511873  9.621684073293778  0.000000
1.72  0.000000  0.000000  0.000000  -24.954353098396435  -6.453930187775039  60.224761425069865  45.7428509044888  -5.625905529477303  34.94389255120999  174.77188520787124  -5.1355789658447435  -62.08201730885222  -10.805654188965862  0.000000
1.76  0.000000  0.000000  0.000000  -39.726496677054236  4.634010266080709  46.504753628609414  41.09783118270142  0.20880511354224007  36.89580705918231  129.61228537264208  -8.55561124235404  -33.01546990725136  33.920666485157454  0.000000
1.8  0.000000  0.000000  0.000000  -28.432475516258723  -7.246743641394029  53.31409511628259  40.82579337786396  12.095124980286686  49.586090689714844  46.01209964467965  -29.711411872364305  -21.325791584794683  106.32225363847887  0.000000
1.84  0.000000  0.000000  0.000000  -45.06742618344979  3.3348968576201434  56.7689054924767  46.05177754248649  -5.725646220406791  35.344453304318904  132.08978052788697  16.021216554711316  -133.93661177322622  101.3373736143197  0.000000
1.8800000000000001  0.000000  0.000000  0.000000  -39.86010781611123  2.1779123170184  54.075849801802825  77.24197530976531  -13.082674900913476  49.066664253556084  117.19858852445984  7.478988325379265  -181.3173649793201  26.996023553480466  0.000000
1.92  0.000000  0.000000  0.000000  -38.2733431673018  1.1696550461604627  50.58238130659534  68.53772604289837  -6.743668501584535  44.87347224300881  116.7097393681713  -8.77050862754218  -101.24068272474861  8.989552699916757  0.000000
